<svg xmlns="http://www.w3.org/2000/svg" width="108" height="108" viewBox="0 0 108 108">
    <g fill="none" fill-rule="evenodd">
        <path stroke="#9B9B9B" stroke-linecap="square" d="M-33-24.542V-25h1v3941h-1V-24.542zm171 0V-25h1v3941h-1V-24.542zm172 0V-25h1v3941h-1V-24.542zm171 0V-25h1v3941h-1V-24.542zm171 0V-25h1v3941h-1V-24.542zm172 0V-25h1v3941h-1V-24.542zm171 0V-25h1v3941h-1V-24.542zm171 0V-25h1v3941h-1V-24.542zm172 0V-25h1v3941h-1V-24.542z" opacity=".1"/>
        <path fill="#051429" d="M54.335 80.688v-2.944H5.473c-.067-.14-.138-.278-.206-.418h49.068V74.38H3.977c-.055-.138-.11-.277-.163-.416h50.521v-.677h3.995l2.285-2.268H2.742c-.046-.138-.096-.276-.14-.416h58.432L64 67.657H1.74c-.037-.138-.07-.278-.104-.418H64.42l2.965-2.943H.988c-.027-.138-.048-.278-.073-.418h66.891l2.403-2.385h-7.937v-.559H.456l-.053-.418h61.869v-2.945H.128c-.007-.138-.023-.276-.03-.416h62.174v-2.946H.004C.004 54.14 0 54.071 0 54c0-.069.004-.138.004-.207h62.268v-.128h31.641v.128h14.081c0 .069.006.138.006.207 0 .071-.006.14-.006.21H93.913v2.945H107.9c-.007.14-.02.278-.03.416H93.913v2.945h13.683c-.016.14-.035.278-.052.418H93.913v2.944h13.173c-.026.14-.049.28-.075.418H93.913v2.943h12.451c-.034.14-.067.28-.103.418H93.913v2.946h11.485c-.046.14-.096.278-.142.416H93.913v2.945h10.273c-.056.139-.107.278-.165.416H93.913v2.946h8.817c-.065.14-.136.278-.205.418h-8.612v2.944h7.05c-.079.14-.16.28-.24.417h-6.81v.063h-7.937v-.063h-7.873l-.01.01-7.937.053v-.063.063-.063h-7.874l-.01.01-7.937.053v-.063H7.275l-.24-.417h47.3zm8.368 0h7.453v-2.944 2.944-2.944h-4.488l-2.965 2.944zm15.82 0h7.453v-2.944h-4.488l-2.964 2.944zm-12.435-3.362h4.068V74.38v2.848-2.848h-1.1l-2.968 2.946zm4.068 0v-.098.098zm11.753 0h4.067V74.38h-1.1l-2.967 2.946zm-12.435-3.362h.682v-.677.677-.677l-.682.677zm15.82 0h.682v-.677l-.681.677zM50.958 108a53.14 53.14 0 0 1-4.275-.416h14.634c-1.41.192-2.833.337-4.273.416h-6.086zM35 104.638c-.355-.134-.705-.276-1.056-.416h40.11c-.35.14-.701.282-1.056.416H35zm-7.237-3.361c-.243-.136-.483-.278-.725-.416H80.96c-.242.138-.482.28-.725.416H27.763zm-5.273-3.362c-.196-.14-.393-.274-.587-.418h64.192c-.192.144-.391.278-.585.418H22.49zm-4.208-3.361c-.159-.142-.324-.276-.48-.418h72.395c-.157.142-.322.276-.481.418H18.282zM14.81 91.19c-.133-.138-.267-.276-.4-.416h79.177c-.13.14-.264.278-.397.416H14.81zm-2.932-3.361c-.112-.138-.219-.278-.328-.416h84.9c-.109.138-.216.278-.328.416H11.878zM9.38 84.467a30.98 30.98 0 0 1-.284-.418h89.804l-.282.418H9.381zm98.489-34.036c.01.138.023.276.032.417H.098c.007-.14.023-.279.03-.417H107.87zm-.326-3.363c.017.14.036.278.052.418H.403l.053-.418h107.088zm-.533-3.362c.026.138.05.278.075.418H.915c.025-.14.046-.28.073-.418H107.01zm-.75-3.361c.036.138.067.278.103.416H1.636c.034-.138.067-.278.103-.416h104.522zm-1.005-3.362c.046.138.096.276.142.416H2.602c.044-.14.094-.278.14-.416h102.514zm-1.235-3.363c.058.14.11.28.165.418H3.814l.163-.418h100.044zm-1.496-3.362c.07.14.14.278.205.418H5.267c.068-.14.139-.278.206-.418h97.052zm-1.802-3.361c.08.138.161.277.24.418H7.035c.078-.14.159-.28.24-.418h93.447zm-2.104-3.362l.282.416H9.097c.094-.14.188-.278.284-.416H98.62zm-2.497-3.362c.112.138.219.278.328.416h-84.9c.109-.138.216-.278.326-.416h84.246zM93.19 16.81c.133.14.267.278.397.418H14.411c.13-.14.266-.278.399-.418h78.38zm-3.472-3.362c.159.142.322.276.479.418H17.801c.157-.142.322-.276.481-.418h71.436zm-4.208-3.361c.194.14.393.274.585.418H21.903c.194-.144.391-.279.587-.418h63.02zm-5.273-3.362c.243.136.483.278.725.416H27.038c.242-.138.482-.28.725-.416h52.474zm-7.24-3.362c.356.133.707.277 1.058.416H33.944c.35-.14.701-.283 1.056-.416h37.998zM57.05 0c1.44.08 2.863.226 4.27.418H46.682A53.864 53.864 0 0 1 50.95 0h6.098z"/>
    </g>
</svg>
