<svg xmlns="http://www.w3.org/2000/svg" width="59" height="59" viewBox="0 0 59 59">
    <g fill="none" fill-rule="evenodd">
        <path fill="#051429" d="M-1199-451H172V88h-1371z"/>
        <g fill="#FFF" fill-rule="nonzero">
            <path d="M29.5 0C13.178 0 0 13.178 0 29.5S13.178 59 29.5 59 59 45.822 59 29.5 45.822 0 29.5 0zm0 2.622c9.506 0 17.897 4.983 22.684 12.456H6.82C11.603 7.606 19.995 2.622 29.5 2.622zm0 53.756c-14.817 0-26.878-12.061-26.878-26.878 0-4.261.984-8.325 2.753-11.867.13.067.328.067.458.067h47.79c1.769 3.539 2.752 7.539 2.752 11.8.002 14.817-12.059 26.877-26.875 26.877z"/>
            <path d="M30.932 27.389a1.315 1.315 0 0 0-1.867 0l-8.665 8.41c-.533.518-.533 1.294 0 1.812a1.315 1.315 0 0 0 1.867 0L30 30.105l7.733 7.506a1.315 1.315 0 0 0 1.867 0c.533-.518.533-1.294 0-1.812l-8.668-8.41z"/>
        </g>
        <g stroke="#9B9B9B" stroke-linecap="square" opacity=".1">
            <path d="M-1201-3658.542v-.458h1V282h-1v-3940.542zm171 0v-.458h1V282h-1v-3940.542zm172 0v-.458h1V282h-1v-3940.542zm171 0v-.458h1V282h-1v-3940.542zm171 0v-.458h1V282h-1v-3940.542zm172 0v-.458h1V282h-1v-3940.542zm171 0v-.458h1V282h-1v-3940.542zm171 0v-.458h1V282h-1v-3940.542zm172 0v-.458h1V282h-1v-3940.542z"/>
        </g>
    </g>
</svg>
